<svg width="41" height="26" viewBox="0 0 41 26" fill="none" xmlns="http://www.w3.org/2000/svg">
<path d="M39.9246 0.901978C38.6506 0.978768 37.3919 1.21981 36.1796 1.61911C34.9471 1.96503 33.7473 2.41829 32.594 2.97369C31.4296 3.4727 30.3322 4.1151 29.327 4.886C28.3008 5.5949 27.3408 6.3949 26.4585 7.2765C25.5696 8.2024 24.7443 9.1873 23.9884 10.2247C23.2751 11.2675 22.6361 12.3591 22.076 13.4916C21.5552 14.6595 21.1029 15.8568 20.7215 17.0773C20.4058 18.3097 20.1663 19.5604 20.0043 20.8223C19.9199 19.5492 19.6791 18.2914 19.2872 17.0773C18.9413 15.8448 18.488 14.645 17.9326 13.4916C17.4336 12.3273 16.7912 11.2298 16.0203 10.2247C15.2919 9.1884 14.4932 8.2033 13.6298 7.2765C12.703 6.4131 11.7179 5.6144 10.6816 4.886C9.67647 4.1151 8.579 3.4727 7.41468 2.97369C6.27257 2.39246 5.07016 1.93822 3.82902 1.61911C2.61677 1.21981 1.35801 0.978768 0.0840036 0.901978C0.0840036 1.61911 0.0043223 2.33624 0.0043223 3.05337C-0.0264515 4.5245 0.107179 5.9944 0.402729 7.4358C0.551182 8.1622 0.737357 8.8803 0.960498 9.5872C1.12782 10.3006 1.36813 10.9948 1.67763 11.659C1.93625 12.3372 2.22878 13.0021 2.55412 13.651L3.66966 15.5633L5.02424 17.3163L6.45851 18.9099L8.05213 20.4239L9.80512 21.6988C10.4426 22.1769 11.08 22.4956 11.7175 22.894L13.7095 23.8502L15.7015 24.5673L17.8529 25.1251L20.0043 25.4438L22.1557 25.1251L24.3071 24.5673L26.3788 23.8502L28.3709 22.894L30.2035 21.6988L31.9565 20.4239C32.5257 19.9608 33.0584 19.4546 33.5501 18.9099C34.0948 18.4182 34.6009 17.8855 35.0641 17.3163L36.339 15.5633C36.7374 14.9259 37.1358 14.2884 37.4545 13.651L38.4107 11.659L39.1278 9.5872C39.3251 8.8791 39.4847 8.1609 39.6059 7.4358C39.7511 6.725 39.8575 6.0068 39.9246 5.2844C40.0321 4.5459 40.0588 3.79775 40.0043 3.05337C40.0175 2.33532 39.9909 1.61709 39.9246 0.901978Z" fill="url(#paint0_linear_2103_3092)"/>
<defs>
<linearGradient id="paint0_linear_2103_3092" x1="6.50516" y1="4.5831" x2="23.3076" y2="29.6689" gradientUnits="userSpaceOnUse">
<stop stop-color="#EB662B"/>
<stop offset="1" stop-color="#F28555"/>
</linearGradient>
</defs>
</svg>
